HIERARCHY
ROOT Model_Hips
{
	OFFSET 0.000000 96.915077 0.000000
	CHANNELS 6 Xposition Yposition Zposition Xrotation Yrotation Zrotation
	JOINT Model_Spine
	{
		OFFSET 0.000000 11.137703 -1.289900
		CHANNELS 3 Xrotation Yrotation Zrotation
		JOINT Model_Spine1
		{
			OFFSET 0.000000 12.993942 -1.504922
			CHANNELS 3 Xrotation Yrotation Zrotation
			JOINT Model_Spine2
			{
				OFFSET 0.000000 14.850220 -1.719911
				CHANNELS 3 Xrotation Yrotation Zrotation
				JOINT Model_Neck
				{
					OFFSET 0.000000 16.706543 -1.934903
					CHANNELS 3 Xrotation Yrotation Zrotation
					JOINT Model_Head
					{
						OFFSET 0.000000 10.471298 2.002100
						CHANNELS 3 Xrotation Yrotation Zrotation
						JOINT Model_HeadTop_End
						{
							OFFSET 0.000000 20.842606 3.985100
							CHANNELS 3 Xrotation Yrotation Zrotation
							End Site
							{
								OFFSET 0.000000 21.220154 0.000000
							}
						}
					}
				}
				JOINT Model_LeftShoulder
				{
					OFFSET 7.008500 14.768600 -1.919946
					CHANNELS 3 Xrotation Yrotation Zrotation
					JOINT Model_LeftArm
					{
						OFFSET 14.126271 -3.718048 0.029937
						CHANNELS 3 Xrotation Yrotation Zrotation
						JOINT Model_LeftForeArm
						{
							OFFSET 28.282801 0.000000 0.000000
							CHANNELS 3 Xrotation Yrotation Zrotation
							JOINT Model_LeftHand
							{
								OFFSET 26.204689 0.000000 0.000000
								CHANNELS 3 Xrotation Yrotation Zrotation
								End Site
								{
									OFFSET 26.204704 0.000000 0.000000
								}
							}
						}
					}
				}
				JOINT Model_RightShoulder
				{
					OFFSET -7.008500 14.768555 -1.949840
					CHANNELS 3 Xrotation Yrotation Zrotation
					JOINT Model_RightArm
					{
						OFFSET -14.126281 -3.718018 -0.029932
						CHANNELS 3 Xrotation Yrotation Zrotation
						JOINT Model_RightForeArm
						{
							OFFSET -28.283798 0.000000 -0.000001
							CHANNELS 3 Xrotation Yrotation Zrotation
							JOINT Model_RightHand
							{
								OFFSET -26.204193 0.000000 -0.000001
								CHANNELS 3 Xrotation Yrotation Zrotation
								End Site
								{
									OFFSET -26.204208 0.000000 -0.000001
								}
							}
						}
					}
				}
			}
		}
	}
	JOINT Model_LeftUpLeg
	{
		OFFSET 8.327700 -6.193199 -0.402800
		CHANNELS 3 Xrotation Yrotation Zrotation
		JOINT Model_LeftLeg
		{
			OFFSET 0.735802 -42.108742 -0.610721
			CHANNELS 3 Xrotation Yrotation Zrotation
			JOINT Model_LeftFoot
			{
				OFFSET -0.735806 -36.833748 -0.172876
				CHANNELS 3 Xrotation Yrotation Zrotation
				JOINT Model_LeftToeBase
				{
					OFFSET -0.565857 -11.977769 16.297714
					CHANNELS 3 Xrotation Yrotation Zrotation
					JOINT Model_LeftToe_End
					{
						OFFSET -0.111712 -0.312793 7.857784
						CHANNELS 3 Xrotation Yrotation Zrotation
						End Site
						{
							OFFSET -0.111712 -0.312793 7.857784
						}
					}
				}
			}
		}
	}
	JOINT Model_RightUpLeg
	{
		OFFSET -8.327700 -6.193199 -0.516500
		CHANNELS 3 Xrotation Yrotation Zrotation
		JOINT Model_RightLeg
		{
			OFFSET -0.735785 -42.108738 -0.434061
			CHANNELS 3 Xrotation Yrotation Zrotation
			JOINT Model_RightFoot
			{
				OFFSET 0.735776 -36.833748 -0.021630
				CHANNELS 3 Xrotation Yrotation Zrotation
				JOINT Model_RightToeBase
				{
					OFFSET 0.565817 -11.977745 15.903093
					CHANNELS 3 Xrotation Yrotation Zrotation
					JOINT Model_RightToe_End
					{
						OFFSET 0.111702 -0.312791 7.811342
						CHANNELS 3 Xrotation Yrotation Zrotation
						End Site
						{
							OFFSET 0.111702 -0.312791 7.811342
						}
					}
				}
			}
		}
	}
}
MOTION
Frames: 11
Frame Time: 0.033333
3.503425 96.667053 87.266930 1.164465 1.251384 -1.565605 0.148022 -0.003890 -0.090915 0.297720 0.013688 -0.423024 0.297720 0.013688 -0.423024 1.081766 0.090582 0.143124 1.081778 0.090582 0.143122 -0.000000 -0.000000 -0.000000 0.272736 -15.947749 -16.955748 3.020497 12.170142 -56.336886 18.078901 -30.899465 -0.249989 -0.000001 -0.000000 0.000000 1.658056 6.156107 17.668357 4.303151 -7.257517 63.077043 16.324079 26.093855 -6.884889 0.000001 -0.000000 -0.000000 -7.713423 9.023713 0.847918 20.160231 -11.914456 0.923689 -12.427968 0.015241 4.386849 -5.332074 3.967116 -4.916325 0.000000 0.000000 -0.000000 -20.745530 -7.157137 -1.453519 53.562705 -4.082117 0.399279 -1.629624 1.811288 -10.577318 -20.835980 -6.285469 11.742535 -0.000001 0.000001 -0.000000 
3.575433 96.737793 91.982834 1.549794 3.032094 -1.214473 0.190296 -0.410175 -0.035356 0.379064 -0.852401 -0.375172 0.379069 -0.852402 -0.375172 1.067127 0.153281 0.118091 1.067159 0.153282 0.118089 0.000001 -0.000000 0.000000 0.263777 -16.430981 -16.237805 2.410168 10.345291 -54.487906 18.474192 -37.952151 -0.037078 0.000002 -0.000000 0.000001 1.780015 5.252198 18.612260 4.232884 -8.801786 62.184351 15.239305 19.787809 -3.875597 0.000001 0.000001 -0.000000 -2.841855 9.850002 0.668691 15.825313 -14.576032 0.463564 -12.809451 0.092507 4.347003 -5.812473 3.762820 -4.634939 0.000001 0.000000 0.000000 -25.153293 -6.423916 -1.779300 45.783038 -4.654616 0.577296 -5.128532 1.836317 -9.581042 -10.978887 -2.895208 5.102588 -0.000000 0.000000 -0.000000 
3.602224 96.158203 96.951584 1.806222 4.278956 -0.501643 0.226811 -0.672794 -0.088323 0.449431 -1.427831 -0.447807 0.449429 -1.427831 -0.447808 1.107023 0.202538 0.071143 1.107026 0.202538 0.071144 0.000000 -0.000000 0.000000 0.425802 -16.152101 -15.380765 1.068464 7.949862 -52.735245 18.444694 -44.616281 0.259808 0.000002 0.000001 -0.000000 1.680507 5.360302 20.143664 6.871924 -11.774576 60.837731 15.291272 18.831982 -2.306948 0.000000 -0.000000 -0.000000 1.866584 10.824074 0.317513 12.828319 -17.246014 0.015816 -14.765484 0.069854 4.958778 -5.874317 3.990453 -4.912528 -0.000000 0.000000 0.000000 -28.057463 -5.475641 -2.445110 36.342641 -4.775089 0.115583 -8.122792 1.787043 -8.827411 -10.161786 -2.443519 2.248894 -0.000001 0.000001 0.000001 
3.634867 95.103745 102.021233 1.873137 4.995080 0.229675 0.319891 -0.822024 -0.116839 0.635859 -1.780998 -0.369228 0.635860 -1.780997 -0.369228 1.028085 0.276566 -0.206272 1.028098 0.276567 -0.206273 -0.000000 0.000000 0.000000 0.326888 -16.691022 -15.358292 -0.594425 6.375134 -50.703564 17.910674 -50.616886 0.814063 -0.000003 -0.000002 0.000001 1.785245 4.914464 19.881323 8.325139 -12.576193 60.338963 15.763940 15.752091 0.648141 0.000001 -0.000000 -0.000000 5.157798 11.971296 0.445627 13.418469 -19.558084 -0.662738 -17.951578 -0.022909 5.807583 -6.932706 4.022507 -4.852399 0.000001 -0.000000 -0.000000 -30.481697 -4.528887 -3.140206 26.744046 -4.584781 -0.793452 -11.036184 1.654120 -7.285814 -10.819250 -1.616687 1.695288 -0.000000 -0.000000 -0.000000 
3.618730 93.895081 107.173401 1.854428 5.536419 0.816276 0.411787 -0.945153 -0.177248 0.822150 -2.098646 -0.265213 0.822152 -2.098647 -0.265213 0.997605 0.313301 -0.399755 0.997606 0.313301 -0.399755 0.000000 0.000000 -0.000000 0.351736 -16.583776 -15.333269 -2.901778 3.937136 -48.902976 17.338927 -54.300332 1.551637 -0.000002 0.000000 0.000001 1.804638 4.715818 20.348597 10.903063 -13.549341 60.092107 17.454048 15.163450 1.384045 -0.000000 -0.000001 0.000000 6.119314 12.740364 1.246899 19.008275 -21.310173 -1.153748 -21.286418 -0.313225 7.173525 -10.870743 4.093841 -4.631195 -0.000000 0.000000 -0.000001 -32.678541 -3.968976 -3.947999 18.061073 -4.435763 -1.611127 -13.807163 1.046114 -3.010033 -12.027868 -1.847786 0.678205 -0.000001 0.000000 0.000001 
3.554339 92.517563 112.489151 1.875419 6.220763 1.209901 0.461615 -1.098216 -0.164085 0.925915 -2.509618 -0.076910 0.925913 -2.509616 -0.076910 0.839941 0.355823 -0.638306 0.839939 0.355822 -0.638306 0.000000 -0.000000 0.000000 0.383131 -16.496258 -15.229415 -5.307440 1.984915 -47.696936 16.784894 -56.456100 2.207802 -0.000001 -0.000000 -0.000001 1.835148 4.619364 20.092753 13.992500 -14.401478 60.958673 19.417109 15.793718 1.169075 0.000003 -0.000001 -0.000000 6.394137 12.211665 2.219711 26.006640 -21.714829 -1.299205 -23.375902 -0.587238 8.350492 -17.464483 4.297820 -4.403361 -0.000000 -0.000000 0.000000 -33.971749 -4.262863 -4.460392 11.825415 -2.808680 -1.810072 -17.514946 0.017803 -0.390926 -14.036400 -1.383702 1.673047 -0.000001 -0.000000 0.000000 
3.385893 91.218040 117.869232 1.989299 7.068271 1.353430 0.470582 -1.267334 -0.041301 0.947786 -2.988342 0.167706 0.947785 -2.988342 0.167706 0.437211 0.413040 -0.901436 0.437210 0.413040 -0.901435 0.000000 0.000000 -0.000000 0.172170 -17.200324 -15.796329 -7.216363 1.520947 -46.099129 16.405366 -57.635486 2.581525 -0.000001 0.000000 0.000002 2.009839 3.788750 19.980462 17.276595 -15.720111 61.582884 21.658586 19.074118 0.196919 0.000001 -0.000001 0.000000 7.173857 11.448070 2.781190 31.827018 -21.148009 -0.096173 -23.484214 -0.507832 8.268966 -25.193593 4.472655 -4.179512 0.000001 0.000000 -0.000000 -36.928941 -4.201822 -4.889436 14.463494 -1.368707 -1.805215 -19.938637 -0.895487 2.072141 -12.473719 -0.332960 0.527198 -0.000006 -0.000000 0.000000 
2.986907 90.089676 123.744843 2.215700 7.830702 1.117585 0.354117 -1.399746 0.144348 0.715614 -3.378802 0.375054 0.715613 -3.378802 0.375053 0.061366 0.435246 -0.997901 0.061418 0.435245 -0.997901 0.000000 -0.000000 -0.000000 0.125470 -17.418488 -15.827567 -8.367670 1.506026 -45.299218 16.133955 -57.979584 2.523938 -0.000003 0.000000 -0.000000 2.090983 3.371262 20.078118 20.075232 -17.471861 62.249729 22.918077 21.621886 -0.713169 0.000001 -0.000001 -0.000000 9.789943 12.185879 3.498247 33.558755 -21.250785 1.989825 -21.876478 -0.256950 7.117482 -28.618925 4.289804 -4.371652 0.000000 -0.000000 0.000001 -40.958490 -3.938486 -4.585319 24.405220 -0.837164 -1.805790 -19.332722 -0.441834 1.321794 -17.104392 0.181540 -0.409908 0.000002 -0.000000 0.000000 
2.485468 89.540550 129.892654 2.597141 8.138876 0.452766 0.088043 -1.430172 0.352769 0.184323 -3.491663 0.634802 0.184322 -3.491664 0.634802 0.040808 0.427226 -1.029895 0.040818 0.427226 -1.029896 0.000000 -0.000000 -0.000000 -0.150908 -18.007676 -16.917272 -7.785353 2.708424 -43.780963 16.445818 -58.390338 2.662235 0.000002 0.000001 0.000000 2.200187 2.853819 19.907133 21.117222 -18.593368 63.136568 23.126110 21.127139 -1.223688 0.000000 -0.000002 0.000000 11.589553 11.900275 4.483988 34.457174 -19.309862 3.269280 -17.262647 -0.104107 5.471382 -30.831419 3.816033 -0.408550 0.000000 -0.000000 0.000000 -42.835566 -4.144694 -3.792375 31.529222 -0.818533 -1.790800 -10.891578 0.177347 1.222064 -21.021087 -0.461511 0.259315 -0.000001 -0.000000 -0.000000 
1.933546 89.490105 135.715790 3.077763 7.806396 -0.535635 -0.188586 -1.306939 0.509257 -0.365412 -3.243842 0.939408 -0.365409 -3.243842 0.939407 -0.017803 0.359389 -0.874936 -0.017802 0.359389 -0.874937 0.000000 -0.000000 -0.000000 -0.157330 -17.948619 -17.040053 -7.408896 3.258578 -43.580688 16.378720 -56.763704 1.436326 0.000001 0.000000 -0.000000 2.279009 2.429848 20.154864 22.335791 -19.576142 63.260365 23.574210 23.032702 -2.144914 -0.000000 -0.000000 0.000000 6.356084 11.463720 5.367779 44.525566 -15.450158 4.898177 0.275777 -0.068760 7.285451 -53.142939 4.784367 -1.671508 0.000000 -0.000000 0.000000 -41.208194 -4.656794 -2.694491 32.528465 -0.112323 -0.825680 -1.902385 0.447052 0.234208 -10.626892 -0.649572 0.958322 0.000004 0.000000 -0.000000 
1.428311 90.129120 141.367126 3.367917 7.170628 -1.629454 -0.324064 -1.099453 0.738948 -0.632697 -2.765282 1.391832 -0.632696 -2.765284 1.391832 -0.199671 0.296603 -0.828268 -0.199671 0.296603 -0.828268 0.000000 -0.000000 -0.000000 0.052509 -17.237019 -16.608882 -7.726961 1.811014 -44.647505 15.938320 -52.004627 -0.561354 -0.000001 -0.000002 -0.000000 2.107487 3.238289 20.293544 21.652470 -20.871315 62.574334 23.004200 24.443920 -1.508063 -0.000003 -0.000001 -0.000000 1.462537 9.896973 6.919779 53.300214 -8.555734 4.579741 7.300543 -0.248364 4.934165 -42.227696 3.587086 -5.232339 -0.000001 -0.000000 -0.000000 -37.757709 -5.228835 -1.125767 31.534642 0.247262 0.006865 2.266723 0.370162 -0.811216 -2.742746 -0.595229 0.652102 0.000000 -0.000000 0.000000 
